<mxfile host="drawio-plugin" modified="2022-05-13T22:49:25.046Z" agent="5.0 (X11; Linux x86_64) AppleWebKit/537.36 (KHTML, like Gecko) Chrome/97.0.4692.45 Safari/537.36" etag="fDUTbqKnndeFfWGawrwp" version="15.5.4" type="embed"><diagram id="C5RBs43oDa-KdzZeNtuy" name="Page-1"><mxGraphModel dx="1748" dy="758" grid="1" gridSize="10" guides="1" tooltips="1" connect="1" arrows="1" fold="1" page="1" pageScale="1" pageWidth="827" pageHeight="1169" math="0" shadow="0"><root><mxCell id="WIyWlLk6GJQsqaUBKTNV-0"/><mxCell id="WIyWlLk6GJQsqaUBKTNV-1" parent="WIyWlLk6GJQsqaUBKTNV-0"/><mxCell id="z-MzSckeirGh2LiHaUF2-52" value="&lt;h1&gt;Bonus functionality&lt;/h1&gt;" style="text;html=1;strokeColor=none;fillColor=none;spacing=5;spacingTop=-20;whiteSpace=wrap;overflow=hidden;rounded=0;" parent="WIyWlLk6GJQsqaUBKTNV-1" vertex="1"><mxGeometry x="40" y="560" width="170" height="80" as="geometry"/></mxCell><mxCell id="z-MzSckeirGh2LiHaUF2-53" value="Sprint" style="swimlane;fontStyle=1;align=center;verticalAlign=top;childLayout=stackLayout;horizontal=1;startSize=26;horizontalStack=0;resizeParent=1;resizeParentMax=0;resizeLast=0;collapsible=1;marginBottom=0;" parent="WIyWlLk6GJQsqaUBKTNV-1" vertex="1"><mxGeometry x="45" y="660" width="180" height="112" as="geometry"/></mxCell><mxCell id="z-MzSckeirGh2LiHaUF2-54" value="+ StartDate: LocalDate" style="text;strokeColor=none;fillColor=none;align=left;verticalAlign=top;spacingLeft=4;spacingRight=4;overflow=hidden;rotatable=0;points=[[0,0.5],[1,0.5]];portConstraint=eastwest;" parent="z-MzSckeirGh2LiHaUF2-53" vertex="1"><mxGeometry y="26" width="180" height="26" as="geometry"/></mxCell><mxCell id="z-MzSckeirGh2LiHaUF2-55" value="+ EndDate: LocalDate" style="text;strokeColor=none;fillColor=none;align=left;verticalAlign=top;spacingLeft=4;spacingRight=4;overflow=hidden;rotatable=0;points=[[0,0.5],[1,0.5]];portConstraint=eastwest;" parent="z-MzSckeirGh2LiHaUF2-53" vertex="1"><mxGeometry y="52" width="180" height="26" as="geometry"/></mxCell><mxCell id="z-MzSckeirGh2LiHaUF2-56" value="+ Tasks: List&lt;Task&gt;" style="text;strokeColor=none;fillColor=none;align=left;verticalAlign=top;spacingLeft=4;spacingRight=4;overflow=hidden;rotatable=0;points=[[0,0.5],[1,0.5]];portConstraint=eastwest;" parent="z-MzSckeirGh2LiHaUF2-53" vertex="1"><mxGeometry y="78" width="180" height="26" as="geometry"/></mxCell><mxCell id="z-MzSckeirGh2LiHaUF2-57" value="" style="line;strokeWidth=1;fillColor=none;align=left;verticalAlign=middle;spacingTop=-1;spacingLeft=3;spacingRight=3;rotatable=0;labelPosition=right;points=[];portConstraint=eastwest;" parent="z-MzSckeirGh2LiHaUF2-53" vertex="1"><mxGeometry y="104" width="180" height="8" as="geometry"/></mxCell><mxCell id="z-MzSckeirGh2LiHaUF2-67" value="0..*" style="endArrow=open;html=1;endSize=12;startArrow=diamondThin;startSize=14;startFill=0;edgeStyle=orthogonalEdgeStyle;align=left;verticalAlign=bottom;rounded=0;strokeWidth=1;entryX=0.5;entryY=0;entryDx=0;entryDy=0;exitX=0.522;exitY=1;exitDx=0;exitDy=0;exitPerimeter=0;" parent="WIyWlLk6GJQsqaUBKTNV-1" source="z-MzSckeirGh2LiHaUF2-57" target="FwZTvt38dyrTNEfOdA_J-44" edge="1"><mxGeometry x="-0.6949" y="11" relative="1" as="geometry"><mxPoint x="200" y="790" as="sourcePoint"/><mxPoint x="140" y="900" as="targetPoint"/><mxPoint as="offset"/></mxGeometry></mxCell><mxCell id="z-MzSckeirGh2LiHaUF2-69" value="1..*" style="edgeLabel;html=1;align=center;verticalAlign=middle;resizable=0;points=[];" parent="z-MzSckeirGh2LiHaUF2-67" vertex="1" connectable="0"><mxGeometry x="0.8308" y="-1" relative="1" as="geometry"><mxPoint x="21" y="-9" as="offset"/></mxGeometry></mxCell><mxCell id="1joe760TqE6z8EETkLQV-0" style="edgeStyle=orthogonalEdgeStyle;rounded=0;orthogonalLoop=1;jettySize=auto;html=1;exitX=0.75;exitY=0;exitDx=0;exitDy=0;entryX=0.189;entryY=1.028;entryDx=0;entryDy=0;entryPerimeter=0;dashed=1;endArrow=open;endFill=0;" parent="WIyWlLk6GJQsqaUBKTNV-1" source="FwZTvt38dyrTNEfOdA_J-1" target="FwZTvt38dyrTNEfOdA_J-33" edge="1"><mxGeometry relative="1" as="geometry"/></mxCell><mxCell id="FwZTvt38dyrTNEfOdA_J-1" value="Project" style="swimlane;fontStyle=1;align=center;verticalAlign=top;childLayout=stackLayout;horizontal=1;startSize=26;horizontalStack=0;resizeParent=1;resizeParentMax=0;resizeLast=0;collapsible=1;marginBottom=0;" parent="WIyWlLk6GJQsqaUBKTNV-1" vertex="1"><mxGeometry x="45" y="260" width="210" height="190" as="geometry"/></mxCell><mxCell id="FwZTvt38dyrTNEfOdA_J-2" value="+ Id: Integer" style="text;strokeColor=none;fillColor=none;align=left;verticalAlign=top;spacingLeft=4;spacingRight=4;overflow=hidden;rotatable=0;points=[[0,0.5],[1,0.5]];portConstraint=eastwest;" parent="FwZTvt38dyrTNEfOdA_J-1" vertex="1"><mxGeometry y="26" width="210" height="26" as="geometry"/></mxCell><mxCell id="FwZTvt38dyrTNEfOdA_J-3" value="+ Name: String" style="text;strokeColor=none;fillColor=none;align=left;verticalAlign=top;spacingLeft=4;spacingRight=4;overflow=hidden;rotatable=0;points=[[0,0.5],[1,0.5]];portConstraint=eastwest;" parent="FwZTvt38dyrTNEfOdA_J-1" vertex="1"><mxGeometry y="52" width="210" height="26" as="geometry"/></mxCell><mxCell id="FwZTvt38dyrTNEfOdA_J-4" value="+ Tasks: List&lt;Task&gt;" style="text;strokeColor=none;fillColor=none;align=left;verticalAlign=top;spacingLeft=4;spacingRight=4;overflow=hidden;rotatable=0;points=[[0,0.5],[1,0.5]];portConstraint=eastwest;" parent="FwZTvt38dyrTNEfOdA_J-1" vertex="1"><mxGeometry y="78" width="210" height="26" as="geometry"/></mxCell><mxCell id="FwZTvt38dyrTNEfOdA_J-5" value="+ Employees: List&lt;Employee&gt;" style="text;strokeColor=none;fillColor=none;align=left;verticalAlign=top;spacingLeft=4;spacingRight=4;overflow=hidden;rotatable=0;points=[[0,0.5],[1,0.5]];portConstraint=eastwest;" parent="FwZTvt38dyrTNEfOdA_J-1" vertex="1"><mxGeometry y="104" width="210" height="26" as="geometry"/></mxCell><mxCell id="FwZTvt38dyrTNEfOdA_J-6" value="" style="line;strokeWidth=1;fillColor=none;align=left;verticalAlign=middle;spacingTop=-1;spacingLeft=3;spacingRight=3;rotatable=0;labelPosition=right;points=[];portConstraint=eastwest;" parent="FwZTvt38dyrTNEfOdA_J-1" vertex="1"><mxGeometry y="130" width="210" height="8" as="geometry"/></mxCell><mxCell id="FwZTvt38dyrTNEfOdA_J-7" value="+ assign(partOfProject): void" style="text;strokeColor=none;fillColor=none;align=left;verticalAlign=top;spacingLeft=4;spacingRight=4;overflow=hidden;rotatable=0;points=[[0,0.5],[1,0.5]];portConstraint=eastwest;" parent="FwZTvt38dyrTNEfOdA_J-1" vertex="1"><mxGeometry y="138" width="210" height="26" as="geometry"/></mxCell><mxCell id="FwZTvt38dyrTNEfOdA_J-8" value="+ removeEmployee(employee): void" style="text;strokeColor=none;fillColor=none;align=left;verticalAlign=top;spacingLeft=4;spacingRight=4;overflow=hidden;rotatable=0;points=[[0,0.5],[1,0.5]];portConstraint=eastwest;" parent="FwZTvt38dyrTNEfOdA_J-1" vertex="1"><mxGeometry y="164" width="210" height="26" as="geometry"/></mxCell><mxCell id="FwZTvt38dyrTNEfOdA_J-9" style="edgeStyle=orthogonalEdgeStyle;rounded=0;orthogonalLoop=1;jettySize=auto;html=1;exitX=0.25;exitY=0;exitDx=0;exitDy=0;entryX=1;entryY=0.5;entryDx=0;entryDy=0;dashed=1;endArrow=block;endFill=1;" parent="WIyWlLk6GJQsqaUBKTNV-1" source="FwZTvt38dyrTNEfOdA_J-10" target="FwZTvt38dyrTNEfOdA_J-33" edge="1"><mxGeometry relative="1" as="geometry"/></mxCell><mxCell id="FwZTvt38dyrTNEfOdA_J-10" value="Task" style="swimlane;fontStyle=1;align=center;verticalAlign=top;childLayout=stackLayout;horizontal=1;startSize=26;horizontalStack=0;resizeParent=1;resizeParentMax=0;resizeLast=0;collapsible=1;marginBottom=0;" parent="WIyWlLk6GJQsqaUBKTNV-1" vertex="1"><mxGeometry x="590" y="250" width="210" height="320" as="geometry"/></mxCell><mxCell id="FwZTvt38dyrTNEfOdA_J-11" value="+ Project: Project" style="text;strokeColor=none;fillColor=none;align=left;verticalAlign=top;spacingLeft=4;spacingRight=4;overflow=hidden;rotatable=0;points=[[0,0.5],[1,0.5]];portConstraint=eastwest;" parent="FwZTvt38dyrTNEfOdA_J-10" vertex="1"><mxGeometry y="26" width="210" height="26" as="geometry"/></mxCell><mxCell id="FwZTvt38dyrTNEfOdA_J-12" value="+ AssignedEmployee: Employee" style="text;strokeColor=none;fillColor=none;align=left;verticalAlign=top;spacingLeft=4;spacingRight=4;overflow=hidden;rotatable=0;points=[[0,0.5],[1,0.5]];portConstraint=eastwest;" parent="FwZTvt38dyrTNEfOdA_J-10" vertex="1"><mxGeometry y="52" width="210" height="26" as="geometry"/></mxCell><mxCell id="FwZTvt38dyrTNEfOdA_J-13" value="+ Title: String" style="text;strokeColor=none;fillColor=none;align=left;verticalAlign=top;spacingLeft=4;spacingRight=4;overflow=hidden;rotatable=0;points=[[0,0.5],[1,0.5]];portConstraint=eastwest;" parent="FwZTvt38dyrTNEfOdA_J-10" vertex="1"><mxGeometry y="78" width="210" height="26" as="geometry"/></mxCell><mxCell id="FwZTvt38dyrTNEfOdA_J-14" value="+ Description: String " style="text;strokeColor=none;fillColor=none;align=left;verticalAlign=top;spacingLeft=4;spacingRight=4;overflow=hidden;rotatable=0;points=[[0,0.5],[1,0.5]];portConstraint=eastwest;" parent="FwZTvt38dyrTNEfOdA_J-10" vertex="1"><mxGeometry y="104" width="210" height="26" as="geometry"/></mxCell><mxCell id="FwZTvt38dyrTNEfOdA_J-15" value="+ EstimatedHours: Integer" style="text;strokeColor=none;fillColor=none;align=left;verticalAlign=top;spacingLeft=4;spacingRight=4;overflow=hidden;rotatable=0;points=[[0,0.5],[1,0.5]];portConstraint=eastwest;" parent="FwZTvt38dyrTNEfOdA_J-10" vertex="1"><mxGeometry y="130" width="210" height="26" as="geometry"/></mxCell><mxCell id="FwZTvt38dyrTNEfOdA_J-16" value="+ CreatedAt: LocalDate" style="text;strokeColor=none;fillColor=none;align=left;verticalAlign=top;spacingLeft=4;spacingRight=4;overflow=hidden;rotatable=0;points=[[0,0.5],[1,0.5]];portConstraint=eastwest;" parent="FwZTvt38dyrTNEfOdA_J-10" vertex="1"><mxGeometry y="156" width="210" height="26" as="geometry"/></mxCell><mxCell id="FwZTvt38dyrTNEfOdA_J-17" value="+ ActualDuration: Integer" style="text;strokeColor=none;fillColor=none;align=left;verticalAlign=top;spacingLeft=4;spacingRight=4;overflow=hidden;rotatable=0;points=[[0,0.5],[1,0.5]];portConstraint=eastwest;" parent="FwZTvt38dyrTNEfOdA_J-10" vertex="1"><mxGeometry y="182" width="210" height="26" as="geometry"/></mxCell><mxCell id="FwZTvt38dyrTNEfOdA_J-56" value="+ Comments: List&lt;Comments&gt;" style="text;strokeColor=none;fillColor=none;align=left;verticalAlign=top;spacingLeft=4;spacingRight=4;overflow=hidden;rotatable=0;points=[[0,0.5],[1,0.5]];portConstraint=eastwest;" parent="FwZTvt38dyrTNEfOdA_J-10" vertex="1"><mxGeometry y="208" width="210" height="26" as="geometry"/></mxCell><mxCell id="FwZTvt38dyrTNEfOdA_J-18" value="" style="line;strokeWidth=1;fillColor=none;align=left;verticalAlign=middle;spacingTop=-1;spacingLeft=3;spacingRight=3;rotatable=0;labelPosition=right;points=[];portConstraint=eastwest;" parent="FwZTvt38dyrTNEfOdA_J-10" vertex="1"><mxGeometry y="234" width="210" height="8" as="geometry"/></mxCell><mxCell id="0" value="+ assignEmployee(employee): void" style="text;strokeColor=none;fillColor=none;align=left;verticalAlign=top;spacingLeft=4;spacingRight=4;overflow=hidden;rotatable=0;points=[[0,0.5],[1,0.5]];portConstraint=eastwest;" vertex="1" parent="FwZTvt38dyrTNEfOdA_J-10"><mxGeometry y="242" width="210" height="26" as="geometry"/></mxCell><mxCell id="FwZTvt38dyrTNEfOdA_J-59" value="+ comment(string): void" style="text;strokeColor=none;fillColor=none;align=left;verticalAlign=top;spacingLeft=4;spacingRight=4;overflow=hidden;rotatable=0;points=[[0,0.5],[1,0.5]];portConstraint=eastwest;" parent="FwZTvt38dyrTNEfOdA_J-10" vertex="1"><mxGeometry y="268" width="210" height="26" as="geometry"/></mxCell><mxCell id="FwZTvt38dyrTNEfOdA_J-66" value="+ deleteComment(comment): void" style="text;strokeColor=none;fillColor=none;align=left;verticalAlign=top;spacingLeft=4;spacingRight=4;overflow=hidden;rotatable=0;points=[[0,0.5],[1,0.5]];portConstraint=eastwest;" parent="FwZTvt38dyrTNEfOdA_J-10" vertex="1"><mxGeometry y="294" width="210" height="26" as="geometry"/></mxCell><mxCell id="FwZTvt38dyrTNEfOdA_J-20" value="Employee" style="swimlane;fontStyle=1;align=center;verticalAlign=top;childLayout=stackLayout;horizontal=1;startSize=26;horizontalStack=0;resizeParent=1;resizeParentMax=0;resizeLast=0;collapsible=1;marginBottom=0;" parent="WIyWlLk6GJQsqaUBKTNV-1" vertex="1"><mxGeometry x="320" y="400" width="180" height="138" as="geometry"/></mxCell><mxCell id="FwZTvt38dyrTNEfOdA_J-21" value="+ Id: Integer" style="text;strokeColor=none;fillColor=none;align=left;verticalAlign=top;spacingLeft=4;spacingRight=4;overflow=hidden;rotatable=0;points=[[0,0.5],[1,0.5]];portConstraint=eastwest;" parent="FwZTvt38dyrTNEfOdA_J-20" vertex="1"><mxGeometry y="26" width="180" height="26" as="geometry"/></mxCell><mxCell id="FwZTvt38dyrTNEfOdA_J-22" value="+ Name: String" style="text;strokeColor=none;fillColor=none;align=left;verticalAlign=top;spacingLeft=4;spacingRight=4;overflow=hidden;rotatable=0;points=[[0,0.5],[1,0.5]];portConstraint=eastwest;" parent="FwZTvt38dyrTNEfOdA_J-20" vertex="1"><mxGeometry y="52" width="180" height="26" as="geometry"/></mxCell><mxCell id="FwZTvt38dyrTNEfOdA_J-23" value="+ Projects: List&lt;Project&gt;" style="text;strokeColor=none;fillColor=none;align=left;verticalAlign=top;spacingLeft=4;spacingRight=4;overflow=hidden;rotatable=0;points=[[0,0.5],[1,0.5]];portConstraint=eastwest;" parent="FwZTvt38dyrTNEfOdA_J-20" vertex="1"><mxGeometry y="78" width="180" height="26" as="geometry"/></mxCell><mxCell id="FwZTvt38dyrTNEfOdA_J-24" value="+ CostPerHour: Double" style="text;strokeColor=none;fillColor=none;align=left;verticalAlign=top;spacingLeft=4;spacingRight=4;overflow=hidden;rotatable=0;points=[[0,0.5],[1,0.5]];portConstraint=eastwest;" parent="FwZTvt38dyrTNEfOdA_J-20" vertex="1"><mxGeometry y="104" width="180" height="26" as="geometry"/></mxCell><mxCell id="FwZTvt38dyrTNEfOdA_J-25" value="" style="line;strokeWidth=1;fillColor=none;align=left;verticalAlign=middle;spacingTop=-1;spacingLeft=3;spacingRight=3;rotatable=0;labelPosition=right;points=[];portConstraint=eastwest;" parent="FwZTvt38dyrTNEfOdA_J-20" vertex="1"><mxGeometry y="130" width="180" height="8" as="geometry"/></mxCell><mxCell id="FwZTvt38dyrTNEfOdA_J-27" value="1" style="endArrow=open;html=1;endSize=12;startArrow=diamondThin;startSize=14;startFill=1;edgeStyle=orthogonalEdgeStyle;align=left;verticalAlign=bottom;rounded=0;exitX=1;exitY=0.5;exitDx=0;exitDy=0;entryX=0.004;entryY=0.086;entryDx=0;entryDy=0;entryPerimeter=0;strokeWidth=1;" parent="WIyWlLk6GJQsqaUBKTNV-1" source="FwZTvt38dyrTNEfOdA_J-4" target="FwZTvt38dyrTNEfOdA_J-10" edge="1"><mxGeometry x="-1" y="3" relative="1" as="geometry"><mxPoint x="300" y="430" as="sourcePoint"/><mxPoint x="460" y="430" as="targetPoint"/></mxGeometry></mxCell><mxCell id="FwZTvt38dyrTNEfOdA_J-28" value="1..*" style="edgeLabel;html=1;align=center;verticalAlign=middle;resizable=0;points=[];" parent="FwZTvt38dyrTNEfOdA_J-27" vertex="1" connectable="0"><mxGeometry x="0.8905" y="2" relative="1" as="geometry"><mxPoint x="-17" y="-8" as="offset"/></mxGeometry></mxCell><mxCell id="FwZTvt38dyrTNEfOdA_J-29" value="0..*" style="endArrow=open;html=1;endSize=12;startArrow=diamondThin;startSize=14;startFill=0;edgeStyle=orthogonalEdgeStyle;align=left;verticalAlign=bottom;rounded=0;entryX=0.5;entryY=0;entryDx=0;entryDy=0;exitX=1;exitY=0.5;exitDx=0;exitDy=0;" parent="WIyWlLk6GJQsqaUBKTNV-1" source="FwZTvt38dyrTNEfOdA_J-5" target="FwZTvt38dyrTNEfOdA_J-20" edge="1"><mxGeometry x="-1" y="3" relative="1" as="geometry"><mxPoint x="390" y="390" as="sourcePoint"/><mxPoint x="460" y="430" as="targetPoint"/></mxGeometry></mxCell><mxCell id="FwZTvt38dyrTNEfOdA_J-30" value="1..*" style="edgeLabel;html=1;align=center;verticalAlign=middle;resizable=0;points=[];" parent="FwZTvt38dyrTNEfOdA_J-29" vertex="1" connectable="0"><mxGeometry x="0.8374" relative="1" as="geometry"><mxPoint x="14" y="-7" as="offset"/></mxGeometry></mxCell><mxCell id="FwZTvt38dyrTNEfOdA_J-31" value="" style="endArrow=none;html=1;edgeStyle=orthogonalEdgeStyle;rounded=0;entryX=0.933;entryY=-0.01;entryDx=0;entryDy=0;entryPerimeter=0;exitX=0;exitY=0.5;exitDx=0;exitDy=0;" parent="WIyWlLk6GJQsqaUBKTNV-1" source="FwZTvt38dyrTNEfOdA_J-12" target="FwZTvt38dyrTNEfOdA_J-20" edge="1"><mxGeometry relative="1" as="geometry"><mxPoint x="290" y="370" as="sourcePoint"/><mxPoint x="450" y="370" as="targetPoint"/></mxGeometry></mxCell><mxCell id="FwZTvt38dyrTNEfOdA_J-32" value="assigned" style="edgeLabel;resizable=0;html=1;align=left;verticalAlign=bottom;" parent="FwZTvt38dyrTNEfOdA_J-31" connectable="0" vertex="1"><mxGeometry x="-1" relative="1" as="geometry"><mxPoint x="-100" y="25" as="offset"/></mxGeometry></mxCell><mxCell id="FwZTvt38dyrTNEfOdA_J-33" value="&lt;p style=&quot;margin:0px;margin-top:4px;text-align:center;&quot;&gt;&lt;i&gt;&amp;lt;&amp;lt;Interface&amp;gt;&amp;gt;&lt;/i&gt;&lt;br&gt;&lt;b&gt;PartOfProject&lt;/b&gt;&lt;/p&gt;&lt;hr size=&quot;1&quot;&gt;&lt;p style=&quot;margin:0px;margin-left:4px;&quot;&gt;+ assignToProject(project): void&lt;br&gt;&lt;/p&gt;&lt;p style=&quot;margin:0px;margin-left:4px;&quot;&gt;+ isPartOfProject(project): void&lt;/p&gt;" style="verticalAlign=top;align=left;overflow=fill;fontSize=12;fontFamily=Helvetica;html=1;" parent="WIyWlLk6GJQsqaUBKTNV-1" vertex="1"><mxGeometry x="220" y="122" width="210" height="80" as="geometry"/></mxCell><mxCell id="FwZTvt38dyrTNEfOdA_J-34" value="&lt;h1&gt;Basic and Additional functionality&lt;/h1&gt;" style="text;html=1;strokeColor=none;fillColor=none;spacing=5;spacingTop=-20;whiteSpace=wrap;overflow=hidden;rounded=0;" parent="WIyWlLk6GJQsqaUBKTNV-1" vertex="1"><mxGeometry x="10" y="30" width="170" height="110" as="geometry"/></mxCell><mxCell id="FwZTvt38dyrTNEfOdA_J-40" style="edgeStyle=orthogonalEdgeStyle;rounded=0;orthogonalLoop=1;jettySize=auto;html=1;exitX=0;exitY=0.5;exitDx=0;exitDy=0;entryX=0.34;entryY=1.033;entryDx=0;entryDy=0;entryPerimeter=0;dashed=1;endArrow=block;endFill=1;" parent="WIyWlLk6GJQsqaUBKTNV-1" source="FwZTvt38dyrTNEfOdA_J-21" target="FwZTvt38dyrTNEfOdA_J-33" edge="1"><mxGeometry relative="1" as="geometry"/></mxCell><mxCell id="FwZTvt38dyrTNEfOdA_J-44" value="&lt;p style=&quot;margin:0px;margin-top:4px;text-align:center;&quot;&gt;&lt;br&gt;&lt;b&gt;Task&lt;/b&gt;&lt;/p&gt;" style="verticalAlign=top;align=left;overflow=fill;fontSize=12;fontFamily=Helvetica;html=1;" parent="WIyWlLk6GJQsqaUBKTNV-1" vertex="1"><mxGeometry x="69" y="890" width="140" height="50" as="geometry"/></mxCell><mxCell id="FwZTvt38dyrTNEfOdA_J-45" value="Comment" style="swimlane;fontStyle=1;align=center;verticalAlign=top;childLayout=stackLayout;horizontal=1;startSize=26;horizontalStack=0;resizeParent=1;resizeParentMax=0;resizeLast=0;collapsible=1;marginBottom=0;" parent="WIyWlLk6GJQsqaUBKTNV-1" vertex="1"><mxGeometry x="595" y="640" width="200" height="112" as="geometry"/></mxCell><mxCell id="FwZTvt38dyrTNEfOdA_J-52" value="+ Content: String" style="text;strokeColor=none;fillColor=none;align=left;verticalAlign=top;spacingLeft=4;spacingRight=4;overflow=hidden;rotatable=0;points=[[0,0.5],[1,0.5]];portConstraint=eastwest;" parent="FwZTvt38dyrTNEfOdA_J-45" vertex="1"><mxGeometry y="26" width="200" height="26" as="geometry"/></mxCell><mxCell id="FwZTvt38dyrTNEfOdA_J-60" value="+ Task: Task" style="text;strokeColor=none;fillColor=none;align=left;verticalAlign=top;spacingLeft=4;spacingRight=4;overflow=hidden;rotatable=0;points=[[0,0.5],[1,0.5]];portConstraint=eastwest;" parent="FwZTvt38dyrTNEfOdA_J-45" vertex="1"><mxGeometry y="52" width="200" height="26" as="geometry"/></mxCell><mxCell id="FwZTvt38dyrTNEfOdA_J-53" value="" style="line;strokeWidth=1;fillColor=none;align=left;verticalAlign=middle;spacingTop=-1;spacingLeft=3;spacingRight=3;rotatable=0;labelPosition=right;points=[];portConstraint=eastwest;" parent="FwZTvt38dyrTNEfOdA_J-45" vertex="1"><mxGeometry y="78" width="200" height="8" as="geometry"/></mxCell><mxCell id="FwZTvt38dyrTNEfOdA_J-54" value="+ edit(string): void" style="text;strokeColor=none;fillColor=none;align=left;verticalAlign=top;spacingLeft=4;spacingRight=4;overflow=hidden;rotatable=0;points=[[0,0.5],[1,0.5]];portConstraint=eastwest;" parent="FwZTvt38dyrTNEfOdA_J-45" vertex="1"><mxGeometry y="86" width="200" height="26" as="geometry"/></mxCell><mxCell id="FwZTvt38dyrTNEfOdA_J-57" value="1" style="endArrow=open;html=1;endSize=12;startArrow=diamondThin;startSize=14;startFill=1;edgeStyle=orthogonalEdgeStyle;align=left;verticalAlign=bottom;rounded=0;entryX=0.5;entryY=0;entryDx=0;entryDy=0;strokeWidth=1;" parent="WIyWlLk6GJQsqaUBKTNV-1" source="FwZTvt38dyrTNEfOdA_J-10" target="FwZTvt38dyrTNEfOdA_J-45" edge="1"><mxGeometry x="-0.1852" y="10" relative="1" as="geometry"><mxPoint x="720" y="540" as="sourcePoint"/><mxPoint x="805.8" y="642.018" as="targetPoint"/><mxPoint as="offset"/></mxGeometry></mxCell><mxCell id="FwZTvt38dyrTNEfOdA_J-58" value="1..*" style="edgeLabel;html=1;align=center;verticalAlign=middle;resizable=0;points=[];" parent="FwZTvt38dyrTNEfOdA_J-57" vertex="1" connectable="0"><mxGeometry x="0.8905" y="2" relative="1" as="geometry"><mxPoint x="18" y="-9" as="offset"/></mxGeometry></mxCell></root></mxGraphModel></diagram></mxfile>